<svg xmlns="http://www.w3.org/2000/svg" xml:space="preserve" viewBox="0 0 52 52" id="Coding">
  <g fill="none" stroke="#000000" stroke-linecap="round" stroke-linejoin="round" stroke-miterlimit="10" stroke-width="2" class="colorStroke000000 svgStroke">
    <path d="M46.855 36.667H5.145V9.876c0-1.074.871-1.945 1.945-1.945h37.82c1.074 0 1.945.87 1.945 1.945v26.791zM48.459 44.069H3.54a1.539 1.539 0 0 1-1.333-2.308l2.937-5.094h41.71l2.937 5.094a1.539 1.539 0 0 1-1.333 2.308z" fill="#3e4c59" class="color000000 svgShape"></path>
  </g>
  <path fill="none" stroke="#000000" stroke-linecap="round" stroke-linejoin="round" stroke-miterlimit="10" stroke-width="2" d="M26.667 40.368h-1.334" class="colorStroke000000 svgStroke"></path>
  <g fill="none" stroke="#000000" stroke-linecap="round" stroke-linejoin="round" stroke-miterlimit="10" stroke-width="2" class="colorStroke000000 svgStroke">
    <path d="m22.427 30.478-7.534-7.534 7.534-7.534M29.573 30.478l7.534-7.534-7.534-7.534" fill="#3e4c59" class="color000000 svgShape"></path>
  </g>
  <g fill="none" stroke="#000000" stroke-linecap="round" stroke-linejoin="round" stroke-miterlimit="10" stroke-width="2" class="colorStroke000000 svgStroke">
    <path d="M46.855 36.667H5.145V9.876c0-1.074.871-1.945 1.945-1.945h37.82c1.074 0 1.945.87 1.945 1.945v26.791zM48.459 44.069H3.54a1.539 1.539 0 0 1-1.333-2.308l2.937-5.094h41.71l2.937 5.094a1.539 1.539 0 0 1-1.333 2.308zM26.667 40.368h-1.334" fill="#3e4c59" class="color000000 svgShape"></path>
    <path d="m22.427 30.478-7.534-7.534 7.534-7.534M29.573 30.478l7.534-7.534-7.534-7.534" fill="#3e4c59" class="color000000 svgShape"></path>
  </g>
</svg>
